<svg version="1.1" xmlns="http://www.w3.org/2000/svg" xmlns:xlink="http://www.w3.org/1999/xlink" width="48" height="48"><defs><linearGradient x1="7.70247" y1="9.51331" x2="71.5269" y2="69.71606" gradientUnits="userSpaceOnUse" id="color-1"><stop offset="0" stop-color="#000000" stop-opacity="0.11"></stop><stop offset="1" stop-color="#000000" stop-opacity="0"></stop></linearGradient><filter id="dropshadow-base"><feColorMatrix type="matrix" values="0 0 0 0 0  0 0 0 0 0  0 0 0 0 0  0 0 0 .8 0"></feColorMatrix> <feOffset dx="0" dy="1"></feOffset> <feGaussianBlur stdDeviation="1"></feGaussianBlur> <feComposite in="SourceGraphic"></feComposite></filter><filter id="dropshadow-banner" x="-10%" y="-10%" width="120%" height="130%"><feColorMatrix type="matrix" values="0 0 0 0 0  0 0 0 0 0  0 0 0 0 0  0 0 0 .4 0"></feColorMatrix> <feOffset dx="0" dy="1"></feOffset> <feGaussianBlur stdDeviation="0.5"></feGaussianBlur> <feComposite in="SourceGraphic"></feComposite></filter></defs><g fill="none" fill-rule="nonzero" stroke="none" stroke-width="none" stroke-linecap="butt" stroke-linejoin="miter" stroke-miterlimit="10" stroke-dasharray="" stroke-dashoffset="0" font-family="none" font-weight="none" font-size="none" text-anchor="none" style="mix-blend-mode: normal"><path d="M7,43c-1.10457,0 -2,-0.89543 -2,-2v-34c0,-1.10457 0.89543,-2 2,-2h34c1.10457,0 2,0.89543 2,2v34c0,1.10457 -0.89543,2 -2,2z" id="base 1 5" fill="#1de9b6" stroke-width="1"></path><path d="M7.70247,27.62167l3.62167,0l-3.62167,-3.62167v-3.62167h3.62169l-3.62169,-3.62169v-7.24334h32.59506l2.70247,2.70247v28.78422c0,1.10457 -0.89543,2 -2,2l-28.78422,0l-4.51331,-4.51331v-3.62167h3.62167l3.62167,3.62167v-0.00002l-7.24334,-7.24334z" fill="url(#color-1)" stroke-width="1"></path><path d="M7.70247,31.24335h9.05418v-3.62167h-9.05418zM19.47291,31.24335h9.05418v-3.62167h-9.05418zM31.24335,31.24335h9.05418v-3.62167h-9.05418zM7.70247,38.48669h3.62167v-3.62167h-3.62167zM14.94582,38.48669h3.62167v-3.62167h-3.62167zM22.18916,38.48669h3.62167v-3.62167h-3.62167zM29.43251,38.48669h3.62167v-3.62167h-3.62167zM36.67586,38.48669h3.62167v-3.62167h-3.62167zM7.70247,24h14.48669v-3.62167h-14.48669zM25.81084,24h14.48669v-3.62167h-14.48669zM7.70247,9.51331v7.24335h32.59506v-7.24335z" fill="none" stroke-width="0"></path><path d="M7.70247,27.62167h9.05418v3.62167h-9.05418zM19.47291,27.62167h9.05418v3.62167h-9.05418zM31.24335,27.62167h9.05418v3.62167h-9.05418zM7.70247,34.86502h3.62167v3.62167h-3.62167zM14.94582,34.86502h3.62167v3.62167h-3.62167zM22.18916,34.86502h3.62167v3.62167h-3.62167zM29.43251,34.86502h3.62167v3.62167h-3.62167zM36.67586,34.86502h3.62167v3.62167h-3.62167zM7.70247,20.37833h14.48669v3.62167h-14.48669zM25.81084,20.37833h14.48669v3.62167h-14.48669zM40.29753,9.51331v7.24335h-32.59506v-7.24335z" fill="#424242" stroke-width="0"></path><path d="M2,24c0,-12.15026 9.84974,-22 22,-22c12.15026,0 22,9.84974 22,22c0,12.15026 -9.84974,22 -22,22c-12.15026,0 -22,-9.84974 -22,-22z" id="base 1 1 1" fill="none" stroke-width="1"></path><g fill="#000000" stroke-width="1" font-family="Roboto, sans-serif" font-weight="normal" font-size="14" text-anchor="start"></g><rect x="2" y="2" width="44" height="22" fill="none" stroke-width="1"></rect><path d="M2,24v-22h44v22z" fill="none" stroke-width="1"></path><path d="M2,24v-22h44v22z" fill="none" stroke-width="1"></path><path d="M2,24v-22h44v22z" fill="none" stroke-width="1"></path><path d="M2,24v-22h44v22z" fill="none" stroke-width="1"></path></g></svg>